# xmcd
#
# Track frame offsets: 
#        150
#        15419
#        34227
#        57029
#        69668
#        90892
#        101742
#        122963
#        135943
#        155013
#        172000
#        196270
#        221375
#        239168
#
# Disc length: 3424 seconds
#
# Revision: 0
# Processed by: cddbd v1.5.2PL0 Copyright (c) Steve Scherf et al.
# Submitted via: ExactAudioCopyFreeDBPlugin 1.0
#
DISCID=bd0d5e0e
DTITLE=Anderson .Paak - Oxnard
DYEAR=2018
DGENRE=R&B
TTITLE0=The Chase (feat. Kadhja Bonet)
TTITLE1=Headlow (feat. Norelle)
TTITLE2=Tints (feat. Kendrick Lamar)
TTITLE3=Who R U?
TTITLE4=6 Summers
TTITLE5=Saviers Road
TTITLE6=Smile Petty
TTITLE7=Mansa Musa (feat. Dr. Dre and Cocoa Sarai)
TTITLE8=Brother's Kepper (feat. Pusha T)
TTITLE9=Anywhere (feat. Snoop Dogg and The Last Artful, Dodgr)
TTITLE10=Trippy (feat. J Cole)
TTITLE11=Cheers (feat. Q-Tip)
TTITLE12=Sweet Chick (feat. BJ The Chicago Kid)
TTITLE13=Left To Right
EXTD=
EXTT0=
EXTT1=
EXTT2=
EXTT3=
EXTT4=
EXTT5=
EXTT6=
EXTT7=
EXTT8=
EXTT9=
EXTT10=
EXTT11=
EXTT12=
EXTT13=
PLAYORDER=
